
<svg xmlns="http://www.w3.org/2000/svg" version="1.1" xmlns:xlink="http://www.w3.org/1999/xlink" preserveAspectRatio="none" x="0px" y="0px" width="650px" height="650px" viewBox="0 0 650 650">
<defs>
<g id="Layer0_0_FILL">
<path fill="#FFFFFF" stroke="none" d="
M 445.4 246.65
Q 442.95 245.3 441.15 245.05 439.35 244.85 438.45 246.4 437.35 247.75 436.9 251.15 436.45 254.25 436.45 260.1 436.45 266.65 436.65 270.65 436.9 274.5 437.8 276.95 438.7 279.45 440.5 280.8 442.05 281.9 444.95 283.25
L 588.95 352.65 444.05 423.85
Q 441.6 424.95 440.05 426.3 438.45 427.65 437.8 430.15 436.9 432.4 436.65 436.2 436.45 440 436.45 446.3 436.45 451.5 436.9 454.85 437.35 458 438.45 459.55 439.35 461.15 441.15 461.15 442.95 460.9 445.4 459.8
L 621.75 370.85
Q 623.1 370.15 624.2 369.05 625.35 367.7 626 365.45 626.7 363.2 627.15 360.3 627.6 357.15 627.6 353.3 627.6 345.7 626.25 341.4 624.65 336.95 622.4 335.8
L 445.4 246.65
M 402.3 152.95
Q 398.7 152.05 393.1 152.05 388.4 152.05 385 152.5 381.65 152.75 379.65 153.85 377.4 154.75 376.05 156.55 374.45 158.15 373.55 161.05
L 237.65 533.7
Q 236.3 536.6 236.75 538.85 237.2 540.85 239.25 542.45 241.25 543.8 245.1 544.7 248.7 545.35 254.3 545.35 259 545.35 262.4 544.9 265.5 544.45 267.75 543.55 270 542.65 271.6 541.1 272.95 539.3 273.85 536.4
L 409.7 163.75
Q 410.85 160.85 410.4 158.6 409.95 156.35 407.95 155 405.9 153.65 402.3 152.95
M 28.1 335.15
Q 26.75 335.6 25.85 337.15 24.75 338.5 24.05 340.5 23.15 342.55 22.95 345.7 22.5 348.85 22.5 352.45 22.5 360.5 23.85 364.8 25.2 369.05 27.45 370.15
L 204.45 459.55
Q 206.9 460.9 208.7 461.15 210.25 461.35 211.4 460 212.5 458.45 212.95 455.05 213.4 451.5 213.4 445.85 213.4 439.35 213.2 435.55 212.75 431.5 211.85 429.25 210.95 426.75 209.35 425.65 207.6 424.3 204.65 422.75
L 60.9 353.1 205.55 282.35
Q 208.25 281 209.8 279.9 211.15 278.55 212.05 276.3 212.75 273.8 213.2 270 213.4 266.2 213.4 259.65 213.4 249.1 211.6 246.4 209.6 243.7 204.45 246.2
L 28.1 335.15 Z"/>
</g>
</defs>

<g transform="matrix( 1, 0, 0, 1, 0,0) ">
<use xlink:href="#Layer0_0_FILL"/>
</g>
</svg>
