
<svg xmlns="http://www.w3.org/2000/svg" version="1.1" xmlns:xlink="http://www.w3.org/1999/xlink" preserveAspectRatio="none" x="0px" y="0px" width="650px" height="650px" viewBox="0 0 650 650">
<defs>
<path id="Layer0_0_1_STROKES" stroke="#FFFFFF" stroke-width="10" stroke-linejoin="round" stroke-linecap="round" fill="none" d="
M 483.45 141.95
Q 483.5 141.5 483.5 141.05 483.5 140.55 483.45 140.1
L 483.45 141.95 483.45 260.5
Q 482.05 274.75 436.75 284.9 390.35 295.35 325 295.45 259.65 295.35 213.25 284.9 167.95 274.75 166.55 260.5
L 166.55 142.7 166.55 141.95
Q 166.5 141.5 166.5 141.05 166.5 140.55 166.55 140.1 168.05 125.8 213.2 115.7 259.6 105.25 325 105.15 390.4 105.25 436.8 115.7 481.95 125.8 483.45 140.1
M 166.55 142.7
Q 169 156.45 213.15 166.35 259.55 176.8 325 176.9 390.35 176.8 436.75 166.35 482.05 156.2 483.45 141.95
M 483.45 265.85
Q 483.5 265.4 483.5 264.95 483.5 264.45 483.45 264
L 483.45 265.85 483.45 384.4
Q 482.05 398.65 436.75 408.8 390.35 419.25 325 419.35 259.65 419.25 213.25 408.8 167.95 398.65 166.55 384.4
L 166.55 265.85
Q 166.5 265.4 166.5 264.95 166.5 264.45 166.55 264
L 166.55 265.85
M 483.45 391.4
Q 483.5 390.95 483.5 390.5 483.5 390 483.45 389.55
L 483.45 391.4 483.45 509.95
Q 482.05 524.2 436.75 534.35 390.35 544.8 325 544.9 259.65 544.8 213.25 534.35 167.95 524.2 166.55 509.95
L 166.55 391.4
Q 166.5 390.95 166.5 390.5 166.5 390 166.55 389.55
L 166.55 391.4
M 166.55 140.1
L 166.55 141.95"/>
</defs>

<g transform="matrix( 1, 0, 0, 1, 0,0) ">
<use xlink:href="#Layer0_0_1_STROKES"/>
</g>
</svg>
