
<svg xmlns="http://www.w3.org/2000/svg" version="1.1" xmlns:xlink="http://www.w3.org/1999/xlink" preserveAspectRatio="none" x="0px" y="0px" width="650px" height="650px" viewBox="0 0 650 650">
<defs>
<style>
	#Layer0_0_FILL:hover > path[fill="#FFFFFF"]
	{
		fill:orange;
	}
</style>
<g id="Layer0_0_FILL">
<path fill="#FFFFFF" stroke="none" d="
M 312.9 459.8
Q 313.6 465.6 316.05 470.1 319.55 476.55 324.55 476.55 329.5 476.55 333 470.1 335.45 465.6 336.2 459.8
L 312.9 459.8
M 293.6 429.5
Q 294.7 430.5 296.25 430.5
L 352.85 430.5
Q 354.35 430.5 355.45 429.5 356.5 428.5 356.5 427 356.5 425.55 355.45 424.55 354.35 423.5 352.85 423.5
L 296.25 423.5
Q 294.7 423.5 293.6 424.55 292.55 425.55 292.55 427 292.55 428.5 293.6 429.5 Z"/>
</g>

<path id="Layer1_0_1_STROKES" stroke="#FFFFFF" stroke-width="10" stroke-linejoin="round" stroke-linecap="round" fill="none" d="
M 502.4 563.55
L 368.5 457.7 321.55 617.5 278.4 456.75 142.1 559.65 206.15 405.4 32.5 412.25 179.25 323.4 34.65 231.55 208.05 241.95 147.6 86.4 281.5 192.25 328.4 32.5 371.55 193.2 507.85 90.3 443.85 244.5 617.5 237.65 470.7 326.5 615.35 418.4 441.9 408 502.4 563.55 Z"/>

<path id="Layer0_0_1_STROKES" stroke="#FFFFFF" stroke-width="5" stroke-linejoin="round" stroke-linecap="round" fill="none" d="
M 324.9 195.95
Q 361.15 196.15 386.9 220.75 408.1 241 412 268.05 412.85 274.15 412.85 280.6 412.85 287.4 411.95 293.85
M 411.75 295.05
Q 408.95 311.25 399.9 325 398.95 326.4 397.95 327.9 367.4 376.45 356.85 413.15
L 292.2 413.15
Q 281.65 376.45 251.15 327.9 250.05 326.4 249.15 325 236.15 305.35 236.15 280.6 236.15 274.15 237.05 268.05 240.95 241 262.1 220.75 287.9 196.15 324.15 195.95
M 333 470.1
Q 329.5 476.55 324.55 476.55 319.55 476.55 316.05 470.1 313.6 465.6 312.9 459.8
L 336.2 459.8
Q 335.45 465.6 333 470.1 Z"/>

<path id="Layer0_0_2_STROKES" stroke="#FFFFFF" stroke-width="9" stroke-linejoin="round" stroke-linecap="round" fill="none" d="
M 296.25 443.25
L 352.85 443.25
Q 354.35 443.25 355.45 444.25 356.5 445.35 356.5 446.75 356.5 448.2 355.45 449.25 354.35 450.3 352.85 450.3
L 296.25 450.3
Q 294.7 450.3 293.6 449.25 292.55 448.2 292.55 446.75 292.55 445.35 293.6 444.25 294.7 443.25 296.25 443.25 Z
M 296.25 423.5
L 352.85 423.5
Q 354.35 423.5 355.45 424.55 356.5 425.55 356.5 427 356.5 428.5 355.45 429.5 354.35 430.5 352.85 430.5
L 296.25 430.5
Q 294.7 430.5 293.6 429.5 292.55 428.5 292.55 427 292.55 425.55 293.6 424.55 294.7 423.5 296.25 423.5 Z"/>
</defs>

<g transform="matrix( 1, 0, 0, 1, 0,0) ">
<use xlink:href="#Layer1_0_1_STROKES"/>
</g>

<g transform="matrix( 1, 0, 0, 1, 0,0) ">
<use xlink:href="#Layer0_0_FILL"/>

<use xlink:href="#Layer0_0_1_STROKES"/>

<use xlink:href="#Layer0_0_2_STROKES"/>
</g>
</svg>
