
<svg xmlns="http://www.w3.org/2000/svg" version="1.1" xmlns:xlink="http://www.w3.org/1999/xlink" preserveAspectRatio="none" x="0px" y="0px" width="500px" height="500px" viewBox="0 0 500 500">
<defs>
<g id="Layer1_0_FILL">
<path fill="#EE5E00" stroke="none" d="
M 165 315.5
L 0 315.5 10 470 81.2 500 82.5 499.45 83.8 500 155 470 165 315.5
M 11.9 386.1
Q 11.9 385.8 12.1 385.55 12.25 385.35 12.7 385.2 13.15 385.05 13.9 384.95 14.65 384.85 15.75 384.85 16.9 384.85 17.6 384.95 18.35 385.05 18.8 385.2 19.25 385.35 19.4 385.55 19.6 385.8 19.6 386.1
L 19.6 400 33.75 400 33.75 386.1
Q 33.75 385.8 33.95 385.55 34.15 385.35 34.6 385.2 35 385.05 35.75 384.95 36.5 384.85 37.65 384.85 38.75 384.85 39.5 384.95 40.2 385.05 40.65 385.2 41.1 385.35 41.3 385.55 41.45 385.8 41.45 386.1
L 41.45 421.9
Q 41.45 422.2 41.3 422.4 41.1 422.65 40.65 422.8 40.2 422.95 39.5 423.05 38.75 423.15 37.65 423.15 36.5 423.15 35.75 423.05 35 422.95 34.6 422.8 34.15 422.65 33.95 422.4 33.75 422.2 33.75 421.9
L 33.75 406.55 19.6 406.55 19.6 421.9
Q 19.6 422.2 19.4 422.4 19.25 422.65 18.8 422.8 18.35 422.95 17.6 423.05 16.9 423.15 15.75 423.15 14.65 423.15 13.9 423.05 13.15 422.95 12.7 422.8 12.25 422.65 12.1 422.4 11.9 422.2 11.9 421.9
L 11.9 386.1
M 46.6 385.2
Q 46.8 385.05 47.1 385.05
L 73.8 385.05
Q 74.1 385.05 74.3 385.2 74.5 385.35 74.65 385.75 74.8 386.1 74.9 386.7 74.95 387.35 74.95 388.2 74.95 389.05 74.9 389.65 74.8 390.25 74.65 390.65 74.5 391 74.3 391.15 74.1 391.35 73.8 391.35
L 64.3 391.35 64.3 421.9
Q 64.3 422.2 64.15 422.4 63.95 422.65 63.5 422.8 63.05 422.95 62.35 423.05 61.55 423.15 60.45 423.15 59.35 423.15 58.6 423.05 57.85 422.95 57.4 422.8 56.95 422.65 56.8 422.4 56.6 422.2 56.6 421.9
L 56.6 391.35 47.1 391.35
Q 46.8 391.35 46.6 391.15 46.4 391 46.25 390.65 46.1 390.25 46.05 389.65 45.95 389.05 45.95 388.2 45.95 387.35 46.05 386.7 46.1 386.1 46.25 385.75 46.4 385.35 46.6 385.2
M 79.45 388.1
Q 79.45 386.6 80.2 385.85 81 385.05 82.35 385.05
L 82.4 385.05 82.4 333 149.25 333 143.85 416.6 151.55 416.6
Q 151.85 416.6 152.05 416.75 152.25 416.9 152.4 417.3 152.55 417.65 152.65 418.25 152.7 418.85 152.7 419.75 152.7 420.6 152.65 421.2 152.55 421.8 152.4 422.2 152.25 422.6 152.05 422.75 151.85 422.95 151.55 422.95
L 143.45 422.95 141.15 458.15 83.5 482.45 82.45 482 82.4 423.15
Q 81.7837890625 423.119140625 81.3 423.05 80.6 422.95 80.2 422.8 79.75 422.65 79.6 422.4 79.45 422.2 79.45 421.9
L 79.45 388.1 Z"/>

<path fill="#FFFFFF" stroke="none" d="
M 139.6 386.1
Q 139.6 385.8 139.45 385.55 139.25 385.35 138.8 385.2 138.35 385.05 137.6 384.95 136.9 384.85 135.75 384.85 134.65 384.85 133.9 384.95 133.15 385.05 132.7 385.2 132.25 385.35 132.1 385.55 131.9 385.8 131.9 386.1
L 131.9 420.5
Q 131.9 421.8 132.55 422.4 133.2 422.95 134.15 422.95
L 143.45 422.95 151.55 422.95
Q 151.85 422.95 152.05 422.75 152.25 422.6 152.4 422.2 152.55 421.8 152.65 421.2 152.7 420.6 152.7 419.75 152.7 418.85 152.65 418.25 152.55 417.65 152.4 417.3 152.25 416.9 152.05 416.75 151.85 416.6 151.55 416.6
L 143.85 416.6 139.6 416.6 139.6 386.1
M 80.2 385.85
Q 79.45 386.6 79.45 388.1
L 79.45 421.9
Q 79.45 422.2 79.6 422.4 79.75 422.65 80.2 422.8 80.6 422.95 81.3 423.05 81.7837890625 423.119140625 82.4 423.15 82.7255859375 423.15 83.05 423.15 84.15 423.15 84.85 423.05 85.5 422.95 85.95 422.8 86.4 422.65 86.6 422.4 86.75 422.2 86.75 421.9
L 86.75 391.05 86.8 391.05 97.4 421.85
Q 97.5 422.2 97.75 422.4 98 422.65 98.45 422.85 98.9 423 99.6 423.05 100.3 423.15 101.3 423.15 102.3 423.15 103 423.1 103.7 423.05 104.2 422.9 104.65 422.75 104.9 422.5 105.15 422.25 105.25 421.85
L 116.25 391.05 116.3 391.05 116.3 421.9
Q 116.3 422.2 116.5 422.4 116.65 422.65 117.1 422.8 117.5 422.95 118.2 423.05 118.9 423.15 119.95 423.15 121.05 423.15 121.75 423.05 122.45 422.95 122.9 422.8 123.3 422.65 123.45 422.4 123.6 422.2 123.6 421.9
L 123.6 388.1
Q 123.6 387.4 123.45 386.85 123.25 386.25 122.9 385.85 122.5 385.45 121.95 385.25 121.35 385.05 120.55 385.05
L 115.4 385.05
Q 114.3 385.05 113.45 385.25 112.65 385.5 112.05 386 111.45 386.55 111 387.4 110.55 388.25 110.15 389.45
L 101.65 412 101.55 412 93.35 389.4
Q 93 388.15 92.55 387.35 92.05 386.5 91.35 386 90.65 385.5 89.7 385.25 88.7 385.05 87.35 385.05
L 82.4 385.05 82.35 385.05
Q 81 385.05 80.2 385.85
M 47.1 385.05
Q 46.8 385.05 46.6 385.2 46.4 385.35 46.25 385.75 46.1 386.1 46.05 386.7 45.95 387.35 45.95 388.2 45.95 389.05 46.05 389.65 46.1 390.25 46.25 390.65 46.4 391 46.6 391.15 46.8 391.35 47.1 391.35
L 56.6 391.35 56.6 421.9
Q 56.6 422.2 56.8 422.4 56.95 422.65 57.4 422.8 57.85 422.95 58.6 423.05 59.35 423.15 60.45 423.15 61.55 423.15 62.35 423.05 63.05 422.95 63.5 422.8 63.95 422.65 64.15 422.4 64.3 422.2 64.3 421.9
L 64.3 391.35 73.8 391.35
Q 74.1 391.35 74.3 391.15 74.5 391 74.65 390.65 74.8 390.25 74.9 389.65 74.95 389.05 74.95 388.2 74.95 387.35 74.9 386.7 74.8 386.1 74.65 385.75 74.5 385.35 74.3 385.2 74.1 385.05 73.8 385.05
L 47.1 385.05
M 12.1 385.55
Q 11.9 385.8 11.9 386.1
L 11.9 421.9
Q 11.9 422.2 12.1 422.4 12.25 422.65 12.7 422.8 13.15 422.95 13.9 423.05 14.65 423.15 15.75 423.15 16.9 423.15 17.6 423.05 18.35 422.95 18.8 422.8 19.25 422.65 19.4 422.4 19.6 422.2 19.6 421.9
L 19.6 406.55 33.75 406.55 33.75 421.9
Q 33.75 422.2 33.95 422.4 34.15 422.65 34.6 422.8 35 422.95 35.75 423.05 36.5 423.15 37.65 423.15 38.75 423.15 39.5 423.05 40.2 422.95 40.65 422.8 41.1 422.65 41.3 422.4 41.45 422.2 41.45 421.9
L 41.45 386.1
Q 41.45 385.8 41.3 385.55 41.1 385.35 40.65 385.2 40.2 385.05 39.5 384.95 38.75 384.85 37.65 384.85 36.5 384.85 35.75 384.95 35 385.05 34.6 385.2 34.15 385.35 33.95 385.55 33.75 385.8 33.75 386.1
L 33.75 400 19.6 400 19.6 386.1
Q 19.6 385.8 19.4 385.55 19.25 385.35 18.8 385.2 18.35 385.05 17.6 384.95 16.9 384.85 15.75 384.85 14.65 384.85 13.9 384.95 13.15 385.05 12.7 385.2 12.25 385.35 12.1 385.55
M 106.7 4.85
L 106.7 58.35 160.15 58.35 106.7 4.85
M 440.95 395.95
Q 441.25 395.15 441.85 394.65 442.5 394.1 443.45 393.8 444.35 393.45 445.6 393.45 447.25 393.45 448.6 393.9 449.95 394.25 450.95 394.75 452 395.25 452.7 395.65 453.4 396.05 453.7 396.05 454.05 396.05 454.25 395.85 454.4 395.7 454.55 395.3 454.6 394.95 454.7 394.35 454.7 393.75 454.7 392.9 454.7 392.15 454.7 391.65 454.65 391.15 454.6 390.8 454.5 390.45 454.4 390.25 454.3 390.05 454 389.75 453.7 389.45 452.8 389 451.9 388.6 450.7 388.25 449.55 387.9 448.2 387.65 446.85 387.45 445.5 387.45 442.9 387.45 440.6 388.15 438.25 388.8 436.55 390.2 434.8 391.55 433.8 393.6 432.8 395.65 432.8 398.4 432.8 400.75 433.5 402.45 434.2 404.15 435.35 405.45 436.45 406.65 437.9 407.55 439.3 408.45 440.85 409.15 442.35 409.85 443.8 410.5 445.25 411.1 446.4 411.85 447.5 412.55 448.2 413.5 448.9 414.4 448.9 415.7 448.9 416.8 448.5 417.7 448.1 418.6 447.3 419.2 446.55 419.85 445.4 420.2 444.3 420.5 442.9 420.5 440.75 420.5 439.15 420.05 437.5 419.55 436.35 418.95 435.15 418.35 434.45 417.9 433.65 417.4 433.25 417.4 432.95 417.4 432.75 417.6 432.55 417.75 432.4 418.1 432.25 418.5 432.2 419.1 432.15 419.7 432.15 420.65 432.15 422 432.3 422.7 432.45 423.4 432.85 423.8 433.25 424.2 434.1 424.65 434.95 425.15 436.25 425.65 437.55 426.1 439.25 426.4 440.9 426.7 442.85 426.7 445.75 426.7 448.3 425.95 450.85 425.2 452.75 423.7 454.7 422.2 455.8 419.95 456.9 417.65 456.9 414.7 456.9 412.4 456.2 410.75 455.5 409.05 454.35 407.8 453.2 406.55 451.75 405.65 450.3 404.75 448.75 404.05 447.25 403.35 445.75 402.75 444.3 402.1 443.15 401.4 442 400.65 441.3 399.75 440.6 398.8 440.6 397.55 440.6 396.7 440.95 395.95
M 414.55 387.6
Q 413.3751953125 387.8076171875 412.25 388.15 409.9 388.8 408.2 390.2 406.45 391.55 405.45 393.6 404.45 395.65 404.45 398.4 404.45 400.75 405.15 402.45 405.85 404.15 407 405.45 408.1 406.65 409.55 407.55 410.95 408.45 412.5 409.15 413.5498046875 409.63984375 414.55 410.1 415.01484375 410.3048828125 415.45 410.5 416.9 411.1 418.05 411.85 419.15 412.55 419.85 413.5 420.55 414.4 420.55 415.7 420.55 416.8 420.15 417.7 419.75 418.6 418.95 419.2 418.2 419.85 417.05 420.2 415.962109375 420.4966796875 414.55 420.5
L 414.55 420.5
Q 412.4 420.5 410.8 420.05 409.15 419.55 408 418.95 406.8 418.35 406.1 417.9 405.3 417.4 404.9 417.4 404.6 417.4 404.4 417.6 404.2 417.75 404.05 418.1 403.9 418.5 403.85 419.1 403.8 419.7 403.8 420.65 403.8 422 403.95 422.7 404.1 423.4 404.5 423.8 404.9 424.2 405.75 424.65 406.6 425.15 407.9 425.65 409.2 426.1 410.9 426.4 412.55 426.7 414.5 426.7 414.538671875 426.7 414.55 426.7 417.4341796875 426.6900390625 419.95 425.95 422.5 425.2 424.4 423.7 426.35 422.2 427.45 419.95 428.55 417.65 428.55 414.7 428.55 412.4 427.85 410.75 427.15 409.05 426 407.8 424.85 406.55 423.4 405.65 421.95 404.75 420.4 404.05 418.9 403.35 417.4 402.75 415.95 402.1 414.8 401.4 414.686328125 401.32578125 414.55 401.25 413.580859375 400.5609375 412.95 399.75 412.25 398.8 412.25 397.55 412.25 396.7 412.6 395.95 412.9 395.15 413.5 394.65 413.9599609375 394.2607421875 414.55 394 414.822265625 393.8876953125 415.1 393.8 416 393.45 417.25 393.45 418.9 393.45 420.25 393.9 421.6 394.25 422.6 394.75 423.65 395.25 424.35 395.65 425.05 396.05 425.35 396.05 425.7 396.05 425.9 395.85 426.05 395.7 426.2 395.3 426.25 394.95 426.35 394.35 426.35 393.75 426.35 392.9 426.35 392.15 426.35 391.65 426.3 391.15 426.25 390.8 426.15 390.45 426.05 390.25 425.95 390.05 425.65 389.75 425.35 389.45 424.45 389 423.55 388.6 422.35 388.25 421.2 387.9 419.85 387.65 418.5 387.45 417.15 387.45 415.8220703125 387.45 414.55 387.6
M 383 388.85
Q 379.75 390.15 377.45 392.7 375.15 395.25 373.85 399 372.55 402.75 372.55 407.6 372.55 412.35 373.75 415.9 374.9 419.5 377.1 421.9 379.3 424.25 382.45 425.45 385.55 426.65 389.45 426.65 391.45 426.65 393.2 426.35 394.9 426 396.25 425.55 397.55 425.05 398.5 424.55 399.4 424 399.7 423.7 400.05 423.35 400.2 423.05 400.35 422.8 400.45 422.45 400.5 422.05 400.55 421.55 400.6 421.05 400.6 420.3 400.6 419.25 400.55 418.65 400.5 418 400.35 417.65 400.25 417.3 400.05 417.15 399.9 417.05 399.6 417.05 399.2 417.05 398.55 417.5 397.85 418 396.8 418.6 395.7 419.15 394.2 419.65 392.7 420.15 390.65 420.15 388.4 420.15 386.65 419.35 384.8 418.6 383.55 417 382.25 415.4 381.6 413 380.9 410.5 380.9 407.2 380.9 404.15 381.55 401.7 382.15 399.25 383.45 397.55 384.65 395.85 386.45 394.95 388.2 394 390.45 394 392.5 394 394 394.55 395.45 395 396.55 395.65 397.6 396.3 398.3 396.8 398.95 397.3 399.4 397.3 399.65 397.3 399.85 397.15 400.05 396.95 400.2 396.6 400.35 396.2 400.45 395.6 400.5 394.95 400.5 394.1 400.5 393.25 400.45 392.7 400.4 392.15 400.3 391.75 400.2 391.35 400.05 391.05 399.95 390.8 399.55 390.45 399.15 390 398.15 389.45 397.15 388.9 395.9 388.5 394.65 388.05 393.2 387.8 391.7 387.5 390.15 387.5 386.25 387.5 383 388.85
M 443.7 4.85
L 443.7 58.35 497.15 58.35 443.7 4.85 Z"/>

<path fill="#FF7E2A" stroke="none" d="
M 86.8 391.05
L 86.75 391.05 86.75 421.9
Q 86.75 422.2 86.6 422.4 86.4 422.65 85.95 422.8 85.5 422.95 84.85 423.05 84.15 423.15 83.05 423.15 82.7255859375 423.15 82.4 423.15
L 82.45 482 83.5 482.45 141.15 458.15 143.45 422.95 134.15 422.95
Q 133.2 422.95 132.55 422.4 131.9 421.8 131.9 420.5
L 131.9 386.1
Q 131.9 385.8 132.1 385.55 132.25 385.35 132.7 385.2 133.15 385.05 133.9 384.95 134.65 384.85 135.75 384.85 136.9 384.85 137.6 384.95 138.35 385.05 138.8 385.2 139.25 385.35 139.45 385.55 139.6 385.8 139.6 386.1
L 139.6 416.6 143.85 416.6 149.25 333 82.4 333 82.4 385.05 87.35 385.05
Q 88.7 385.05 89.7 385.25 90.65 385.5 91.35 386 92.05 386.5 92.55 387.35 93 388.15 93.35 389.4
L 101.55 412 101.65 412 110.15 389.45
Q 110.55 388.25 111 387.4 111.45 386.55 112.05 386 112.65 385.5 113.45 385.25 114.3 385.05 115.4 385.05
L 120.55 385.05
Q 121.35 385.05 121.95 385.25 122.5 385.45 122.9 385.85 123.25 386.25 123.45 386.85 123.6 387.4 123.6 388.1
L 123.6 421.9
Q 123.6 422.2 123.45 422.4 123.3 422.65 122.9 422.8 122.45 422.95 121.75 423.05 121.05 423.15 119.95 423.15 118.9 423.15 118.2 423.05 117.5 422.95 117.1 422.8 116.65 422.65 116.5 422.4 116.3 422.2 116.3 421.9
L 116.3 391.05 116.25 391.05 105.25 421.85
Q 105.15 422.25 104.9 422.5 104.65 422.75 104.2 422.9 103.7 423.05 103 423.1 102.3 423.15 101.3 423.15 100.3 423.15 99.6 423.05 98.9 423 98.45 422.85 98 422.65 97.75 422.4 97.5 422.2 97.4 421.85
L 86.8 391.05 Z"/>

<path fill="#CCCCCC" stroke="none" d="
M 106.7 58.35
L 106.7 4.85 11.15 4.85
Q 5.75 4.85 5.75 10.25
L 5.75 179.75
Q 5.75 185.15 11.15 185.15
L 154.75 185.15
Q 160.15 185.15 160.15 179.75
L 160.15 58.35 106.7 58.35
M 95.65 90.15
Q 92.5 93.75 91.15 98.4 95.8 98.15 105.2 98.15 105.5 106.55 104.6 116 89.6 115.95 82.15 115.95 80.45 130.8 68.15 141.45 55.9 152 41 151.65 40 142.35 41.3 132.6 44.15 132.75 46.85 132.05 51.1 130.95 55.25 127.65 57.25 126 59.15 124.1 62.5 120.3 65 115.35 67.1 111.2 70.85 100.95 74.15 91.4 77 86.7 82.75 76.65 92.75 70.25 102.35 64.2 113.2 62.9 114.35 73.05 113.6 82.05 110.5 81.95 107.75 82.8 103.55 83.85 99.7 86.55 97.45 88.2 95.65 90.15
M 491.75 185.15
Q 497.15 185.15 497.15 179.75
L 497.15 58.35 443.7 58.35 443.7 4.85 348.15 4.85
Q 342.75 4.85 342.75 10.25
L 342.75 179.75
Q 342.75 185.15 348.15 185.15
L 491.75 185.15
M 413.6 94.55
Q 411.2 95.8 409.6 98.1 407.9 100.35 407.05 103.6 406.2 106.85 406.2 110.9 406.2 115.35 407.1 118.65 408 121.85 409.75 124 411.4 126.1 413.85 127.15 416.2 128.15 419.25 128.15 421.95 128.15 423.95 127.55 425.95 126.85 427.4 126.1 428.8 125.3 429.75 124.7 430.65 124.05 431.15 124.05 431.55 124.05 431.75 124.2 432 124.35 432.15 124.85 432.3 125.3 432.4 126.15 432.45 127 432.45 128.4 432.45 129.35 432.45 130.05 432.35 130.75 432.25 131.25 432.1 131.7 431.9 132.05 431.75 132.4 431.3 132.9 430.85 133.3 429.65 134 428.4 134.7 426.65 135.4 424.85 136 422.6 136.45 420.3 136.85 417.65 136.85 412.45 136.85 408.25 135.25 404.05 133.65 401.15 130.5 398.2 127.3 396.65 122.55 395.1 117.75 395.1 111.45 395.1 105 396.8 100 398.5 95 401.6 91.6 404.7 88.2 409.05 86.45 413.35 84.7 418.5 84.7 420.65 84.7 422.6 85.05 424.55 85.4 426.2 85.95 427.85 86.5 429.2 87.25 430.5 88 431.05 88.55 431.55 89.05 431.75 89.4 431.95 89.75 432.1 90.3 432.2 90.85 432.25 91.6 432.3 92.35 432.3 93.45 432.3 94.6 432.25 95.45 432.15 96.25 431.95 96.75 431.75 97.25 431.5 97.5 431.2 97.75 430.85 97.75 430.3 97.75 429.4 97.05 428.5 96.35 427.1 95.55 425.65 94.7 423.7 94 421.7 93.3 418.95 93.3 415.95 93.3 413.6 94.55 Z"/>

<path fill="#FF6666" stroke="none" d="
M 91.15 98.4
Q 92.5 93.75 95.65 90.15 97.45 88.2 99.7 86.55 103.55 83.85 107.75 82.8 110.5 81.95 113.6 82.05 114.35 73.05 113.2 62.9 102.35 64.2 92.75 70.25 82.75 76.65 77 86.7 74.15 91.4 70.85 100.95 67.1 111.2 65 115.35 62.5 120.3 59.15 124.1 57.25 126 55.25 127.65 51.1 130.95 46.85 132.05 44.15 132.75 41.3 132.6 40 142.35 41 151.65 55.9 152 68.15 141.45 80.45 130.8 82.15 115.95 89.6 115.95 104.6 116 105.5 106.55 105.2 98.15 95.8 98.15 91.15 98.4 Z"/>

<path fill="#15B3D9" stroke="none" d="
M 497.15 315.5
L 332.15 315.5 342.15 470 413.35 500 414.65 499.45 415.95 500 487.15 470 497.15 315.5
M 377.45 392.7
Q 379.75 390.15 383 388.85 386.25 387.5 390.15 387.5 391.7 387.5 393.2 387.8 394.65 388.05 395.9 388.5 397.15 388.9 398.15 389.45 399.15 390 399.55 390.45 399.95 390.8 400.05 391.05 400.2 391.35 400.3 391.75 400.4 392.15 400.45 392.7 400.5 393.25 400.5 394.1 400.5 394.95 400.45 395.6 400.35 396.2 400.2 396.6 400.05 396.95 399.85 397.15 399.65 397.3 399.4 397.3 398.95 397.3 398.3 396.8 397.6 396.3 396.55 395.65 395.45 395 394 394.55 392.5 394 390.45 394 388.2 394 386.45 394.95 384.65 395.85 383.45 397.55 382.15 399.25 381.55 401.7 380.9 404.15 380.9 407.2 380.9 410.5 381.6 413 382.25 415.4 383.55 417 384.8 418.6 386.65 419.35 388.4 420.15 390.65 420.15 392.7 420.15 394.2 419.65 395.7 419.15 396.8 418.6 397.85 418 398.55 417.5 399.2 417.05 399.6 417.05 399.9 417.05 400.05 417.15 400.25 417.3 400.35 417.65 400.5 418 400.55 418.65 400.6 419.25 400.6 420.3 400.6 421.05 400.55 421.55 400.5 422.05 400.45 422.45 400.35 422.8 400.2 423.05 400.05 423.35 399.7 423.7 399.4 424 398.5 424.55 397.55 425.05 396.25 425.55 394.9 426 393.2 426.35 391.45 426.65 389.45 426.65 385.55 426.65 382.45 425.45 379.3 424.25 377.1 421.9 374.9 419.5 373.75 415.9 372.55 412.35 372.55 407.6 372.55 402.75 373.85 399 375.15 395.25 377.45 392.7
M 412.25 388.15
Q 413.3751953125 387.8076171875 414.55 387.6
L 414.55 333 481.4 333 473.3 458.15 415.65 482.45 414.6 482 414.55 426.7
Q 414.538671875 426.7 414.5 426.7 412.55 426.7 410.9 426.4 409.2 426.1 407.9 425.65 406.6 425.15 405.75 424.65 404.9 424.2 404.5 423.8 404.1 423.4 403.95 422.7 403.8 422 403.8 420.65 403.8 419.7 403.85 419.1 403.9 418.5 404.05 418.1 404.2 417.75 404.4 417.6 404.6 417.4 404.9 417.4 405.3 417.4 406.1 417.9 406.8 418.35 408 418.95 409.15 419.55 410.8 420.05 412.4 420.5 414.55 420.5
L 414.55 420.5 414.55 410.1
Q 413.5498046875 409.63984375 412.5 409.15 410.95 408.45 409.55 407.55 408.1 406.65 407 405.45 405.85 404.15 405.15 402.45 404.45 400.75 404.45 398.4 404.45 395.65 405.45 393.6 406.45 391.55 408.2 390.2 409.9 388.8 412.25 388.15
M 413.5 394.65
Q 412.9 395.15 412.6 395.95 412.25 396.7 412.25 397.55 412.25 398.8 412.95 399.75 413.580859375 400.5609375 414.55 401.25
L 414.55 394
Q 413.9599609375 394.2607421875 413.5 394.65 Z"/>

<path fill="#69D4EE" stroke="none" d="
M 414.55 410.1
L 414.55 420.5
Q 415.962109375 420.4966796875 417.05 420.2 418.2 419.85 418.95 419.2 419.75 418.6 420.15 417.7 420.55 416.8 420.55 415.7 420.55 414.4 419.85 413.5 419.15 412.55 418.05 411.85 416.9 411.1 415.45 410.5 415.01484375 410.3048828125 414.55 410.1
M 415.1 393.8
Q 414.822265625 393.8876953125 414.55 394
L 414.55 401.25
Q 414.686328125 401.32578125 414.8 401.4 415.95 402.1 417.4 402.75 418.9 403.35 420.4 404.05 421.95 404.75 423.4 405.65 424.85 406.55 426 407.8 427.15 409.05 427.85 410.75 428.55 412.4 428.55 414.7 428.55 417.65 427.45 419.95 426.35 422.2 424.4 423.7 422.5 425.2 419.95 425.95 417.4341796875 426.6900390625 414.55 426.7
L 414.6 482 415.65 482.45 473.3 458.15 481.4 333 414.55 333 414.55 387.6
Q 415.8220703125 387.45 417.15 387.45 418.5 387.45 419.85 387.65 421.2 387.9 422.35 388.25 423.55 388.6 424.45 389 425.35 389.45 425.65 389.75 425.95 390.05 426.05 390.25 426.15 390.45 426.25 390.8 426.3 391.15 426.35 391.65 426.35 392.15 426.35 392.9 426.35 393.75 426.35 394.35 426.25 394.95 426.2 395.3 426.05 395.7 425.9 395.85 425.7 396.05 425.35 396.05 425.05 396.05 424.35 395.65 423.65 395.25 422.6 394.75 421.6 394.25 420.25 393.9 418.9 393.45 417.25 393.45 416 393.45 415.1 393.8
M 441.85 394.65
Q 441.25 395.15 440.95 395.95 440.6 396.7 440.6 397.55 440.6 398.8 441.3 399.75 442 400.65 443.15 401.4 444.3 402.1 445.75 402.75 447.25 403.35 448.75 404.05 450.3 404.75 451.75 405.65 453.2 406.55 454.35 407.8 455.5 409.05 456.2 410.75 456.9 412.4 456.9 414.7 456.9 417.65 455.8 419.95 454.7 422.2 452.75 423.7 450.85 425.2 448.3 425.95 445.75 426.7 442.85 426.7 440.9 426.7 439.25 426.4 437.55 426.1 436.25 425.65 434.95 425.15 434.1 424.65 433.25 424.2 432.85 423.8 432.45 423.4 432.3 422.7 432.15 422 432.15 420.65 432.15 419.7 432.2 419.1 432.25 418.5 432.4 418.1 432.55 417.75 432.75 417.6 432.95 417.4 433.25 417.4 433.65 417.4 434.45 417.9 435.15 418.35 436.35 418.95 437.5 419.55 439.15 420.05 440.75 420.5 442.9 420.5 444.3 420.5 445.4 420.2 446.55 419.85 447.3 419.2 448.1 418.6 448.5 417.7 448.9 416.8 448.9 415.7 448.9 414.4 448.2 413.5 447.5 412.55 446.4 411.85 445.25 411.1 443.8 410.5 442.35 409.85 440.85 409.15 439.3 408.45 437.9 407.55 436.45 406.65 435.35 405.45 434.2 404.15 433.5 402.45 432.8 400.75 432.8 398.4 432.8 395.65 433.8 393.6 434.8 391.55 436.55 390.2 438.25 388.8 440.6 388.15 442.9 387.45 445.5 387.45 446.85 387.45 448.2 387.65 449.55 387.9 450.7 388.25 451.9 388.6 452.8 389 453.7 389.45 454 389.75 454.3 390.05 454.4 390.25 454.5 390.45 454.6 390.8 454.65 391.15 454.7 391.65 454.7 392.15 454.7 392.9 454.7 393.75 454.7 394.35 454.6 394.95 454.55 395.3 454.4 395.7 454.25 395.85 454.05 396.05 453.7 396.05 453.4 396.05 452.7 395.65 452 395.25 450.95 394.75 449.95 394.25 448.6 393.9 447.25 393.45 445.6 393.45 444.35 393.45 443.45 393.8 442.5 394.1 441.85 394.65 Z"/>

<path fill="#0000FF" stroke="none" d="
M 409.6 98.1
Q 411.2 95.8 413.6 94.55 415.95 93.3 418.95 93.3 421.7 93.3 423.7 94 425.65 94.7 427.1 95.55 428.5 96.35 429.4 97.05 430.3 97.75 430.85 97.75 431.2 97.75 431.5 97.5 431.75 97.25 431.95 96.75 432.15 96.25 432.25 95.45 432.3 94.6 432.3 93.45 432.3 92.35 432.25 91.6 432.2 90.85 432.1 90.3 431.95 89.75 431.75 89.4 431.55 89.05 431.05 88.55 430.5 88 429.2 87.25 427.85 86.5 426.2 85.95 424.55 85.4 422.6 85.05 420.65 84.7 418.5 84.7 413.35 84.7 409.05 86.45 404.7 88.2 401.6 91.6 398.5 95 396.8 100 395.1 105 395.1 111.45 395.1 117.75 396.65 122.55 398.2 127.3 401.15 130.5 404.05 133.65 408.25 135.25 412.45 136.85 417.65 136.85 420.3 136.85 422.6 136.45 424.85 136 426.65 135.4 428.4 134.7 429.65 134 430.85 133.3 431.3 132.9 431.75 132.4 431.9 132.05 432.1 131.7 432.25 131.25 432.35 130.75 432.45 130.05 432.45 129.35 432.45 128.4 432.45 127 432.4 126.15 432.3 125.3 432.15 124.85 432 124.35 431.75 124.2 431.55 124.05 431.15 124.05 430.65 124.05 429.75 124.7 428.8 125.3 427.4 126.1 425.95 126.85 423.95 127.55 421.95 128.15 419.25 128.15 416.2 128.15 413.85 127.15 411.4 126.1 409.75 124 408 121.85 407.1 118.65 406.2 115.35 406.2 110.9 406.2 106.85 407.05 103.6 407.9 100.35 409.6 98.1 Z"/>
</g>

<path id="Layer1_0_1_STROKES" stroke="#FFFFFF" stroke-width="4" stroke-linejoin="round" stroke-linecap="round" fill="none" d="
M 497.15 58.35
L 497.15 179.75
Q 497.15 185.15 491.75 185.15
L 348.15 185.15
Q 342.75 185.15 342.75 179.75
L 342.75 10.25
Q 342.75 4.85 348.15 4.85
L 443.7 4.85 497.15 58.35 443.7 58.35 443.7 4.85
M 160.15 58.35
L 106.7 58.35 106.7 4.85 11.15 4.85
Q 5.75 4.85 5.75 10.25
L 5.75 179.75
Q 5.75 185.15 11.15 185.15
L 154.75 185.15
Q 160.15 185.15 160.15 179.75
L 160.15 58.35 106.7 4.85"/>
</defs>

<g transform="matrix( 1, 0, 0, 1, 0,0) ">
<use xlink:href="#Layer1_0_FILL"/>

<use xlink:href="#Layer1_0_1_STROKES"/>
</g>
</svg>
