
<svg xmlns="http://www.w3.org/2000/svg" version="1.1" xmlns:xlink="http://www.w3.org/1999/xlink" preserveAspectRatio="none" x="0px" y="0px" width="500px" height="500px" viewBox="0 0 500 500">
<defs>
<g id="Layer0_0_FILL">
<path fill="#FFFFFF" stroke="none" d="
M 120.3 132.1
L 155.95 132.1 120.3 96.45 120.3 132.1
M 476.8 166.4
Q 478.25 166.4 478.85 165.85 479.45 165.3 479.45 164.4 479.45 163.5 478.85 162.95 478.2 162.4 476.8 162.4
L 454.8 162.4
Q 453.35 162.4 452.75 162.95 452.1 163.5 452.1 164.4 452.1 165.3 452.75 165.85 453.35 166.4 454.8 166.4
L 476.8 166.4
M 423.85 130.6
Q 421.6 128.5 417.85 128.5 413.95 128.5 411.35 130.35 409.55 131.6 409.55 132.95 409.55 133.8 410.1 134.4 410.7 135 411.5 135 412.05 135 412.45 134.75 412.7 134.65 413.15 134.15 414.7 132.45 417.6 132.45 419.8 132.45 420.95 133.4 422.05 134.3 422.05 135.6 422.05 136.4 421.6 137.15 421.1 137.9 420.35 138.35 419.55 138.75 418.75 138.85 418.65 138.85 416.65 138.85 415.75 138.85 415.15 139.45 414.55 140.05 414.55 140.9 414.55 141.7 415.1 142.25 415.65 142.8 416.65 142.9 418.75 143 419.6 143.35 421.15 144 422.05 145.15 422.95 146.3 422.95 147.5 422.95 149.15 421.4 150.1 419.8 151 416.35 151 414.25 151 413.1 150.7 412.35 150.5 411.5 149.95 410.9 149.55 410.3 149.55 409.5 149.55 408.9 150.15 408.35 150.75 408.35 151.6 408.35 152.7 409.65 153.55 412 155 416.65 155 420.2 155 422.4 154.05 424.65 153.15 425.8 151.35 426.95 149.5 426.95 147.4 426.95 145.4 426.05 143.85 425.2 142.25 423.4 141 424.75 139.9 425.4 138.55 426.05 137.2 426.05 135.65 426.05 132.7 423.85 130.6
M 446.4 146.1
Q 446.9 145.55 446.9 144.7 446.9 143.8 446.4 143.3 445.95 142.75 445.05 142.65 444.15 142.55 443.85 142.25 443.6 141.9 443.6 141.1
L 443.6 134.4
Q 443.6 133.05 443 132.05 442.1 130.5 440.9 129.8 439.7 129.1 438.4 129.1 437.45 129.1 436.9 129.7 436.3 130.3 436.3 131.15 436.3 131.95 436.8 132.5 437.35 133.05 438.15 133.15 439 133.25 439.3 133.6 439.6 133.9 439.6 134.7
L 439.6 141.1
Q 439.6 142.4 439.85 143.15 440.1 143.9 440.8 144.7 440.05 145.5 439.85 146.25 439.6 147 439.6 148.7
L 439.6 155.05
Q 439.6 155.85 439.25 156.25 439 156.55 438.2 156.6 437.35 156.7 436.8 157.25 436.3 157.8 436.3 158.6 436.3 159.5 436.9 160.05 437.45 160.65 438.4 160.65 440.45 160.65 442 159.1 443.6 157.5 443.6 155.35
L 443.6 148.3
Q 443.6 147.45 443.9 147.1 444.1 146.8 445.05 146.7 445.95 146.6 446.4 146.1
M 343.7 141.1
Q 343.7 141.9 343.4 142.3 343.2 142.55 342.3 142.65 341.4 142.75 340.9 143.3 340.4 143.8 340.4 144.7 340.4 145.55 340.9 146.1 341.4 146.6 342.25 146.7 343.15 146.8 343.45 147.15 343.7 147.45 343.7 148.3
L 343.7 155.35
Q 343.7 156.7 344.3 157.7 345.2 159.25 346.4 159.95 347.6 160.65 348.9 160.65 349.85 160.65 350.45 160.05 351 159.5 351 158.6 351 157.8 350.5 157.25 349.95 156.65 349.15 156.6 348.35 156.55 348.05 156.2 347.7 155.85 347.7 155.05
L 347.7 148.7
Q 347.7 147 347.45 146.25 347.2 145.5 346.5 144.7 347.2 143.9 347.45 143.15 347.7 142.45 347.7 141.1
L 347.7 134.7
Q 347.7 133.9 348.1 133.5 348.3 133.25 349.15 133.15 349.95 133.05 350.5 132.5 351 131.95 351 131.15 351 130.3 350.45 129.7 349.85 129.1 348.9 129.1 346.85 129.1 345.3 130.7 343.7 132.25 343.7 134.4
L 343.7 141.1
M 396.25 134.65
Q 397.4 135.15 397.95 135.9 398.3 136.3 398.5 137.3 398.75 138.3 399.15 138.65 399.7 139.1 400.45 139.1 401.35 139.1 401.9 138.5 402.45 137.85 402.45 136.4
L 402.45 133.4
Q 402.45 132 401.9 131.35 401.35 130.75 400.45 130.75 399.65 130.75 398.9 131.5 397.8 130.8 396.5 130.45 395.2 130.1 393.65 130.1 389.8 130.1 387.4 132.3 385 134.45 385 137.3 385 139.15 385.95 140.7 386.95 142.25 388.6 143.1 390.3 143.95 393.6 144.6 396.3 145.1 397.05 145.4 398.25 145.8 398.8 146.45 399.3 147.1 399.3 147.85 399.3 148.95 398.2 149.75 396.5 151 393.85 151 392.1 151 390.65 150.35 389.2 149.75 388.65 149.15 388.4 148.8 388.15 147.95 387.85 147.1 387.4 146.7 386.9 146.35 386.2 146.35 385.3 146.35 384.75 146.95 384.2 147.55 384.2 149
L 384.2 151.7
Q 384.2 153.15 384.75 153.75 385.3 154.35 386.2 154.35 386.7 154.35 387 154.2 387.35 154 387.85 153.4 389.35 154.2 390.9 154.6 392.5 155 394.15 155 398.45 155 401.2 152.65 403.3 150.85 403.3 147.9 403.3 145.75 402.2 144.2 401.1 142.7 399.45 141.95 397.8 141.25 394.75 140.65 391.65 140.05 391 139.75 390 139.35 389.5 138.7 388.95 137.95 388.95 137.25 388.95 136.15 390.25 135.15 391.5 134.15 393.65 134.15 395.15 134.15 396.25 134.65
M 364.85 147.95
L 374.6 147.95 375.55 150.4 374.6 150.4
Q 373.15 150.4 372.5 150.95 371.9 151.5 371.9 152.4 371.9 153.3 372.5 153.85 373.15 154.4 374.6 154.4
L 379.95 154.4
Q 381.4 154.4 382 153.85 382.6 153.3 382.6 152.4 382.6 151.35 381.7 150.7 381.25 150.4 379.85 150.4
L 371.9 130.75 363.25 130.7
Q 361.8 130.7 361.2 131.3 360.55 131.8 360.55 132.7 360.55 133.6 361.2 134.2 361.8 134.75 363.25 134.75
L 365.85 134.75 359.6 150.4
Q 358.1 150.35 357.45 150.9 356.8 151.5 356.8 152.4 356.8 153.3 357.45 153.85 358.05 154.4 359.5 154.4
L 364.85 154.4
Q 366.3 154.4 366.95 153.85 367.55 153.3 367.55 152.4 367.55 151.5 366.95 150.95 366.3 150.4 364.85 150.4
L 363.9 150.4 364.85 147.95
M 369.7 136
L 372.95 143.95 366.45 143.95 369.7 136
M 346.7 229.1
L 346.7 301.3 475.7 255.1 346.7 229.1
M 346.7 301.3
L 346.7 363.05 475.7 389.05 475.7 255.1 346.7 301.3 Z"/>

<path fill="#CCCCCC" stroke="none" d="
M 155.95 132.1
L 120.3 132.1 120.3 96.45 56.6 96.45
Q 53 96.45 53 100.05
L 53 213.05
Q 53 216.65 56.6 216.65
L 152.35 216.65
Q 155.95 216.65 155.95 213.05
L 155.95 132.1
M 76.7 181.6
Q 78.6 181.7 80.4 181.25 83.25 180.5 86 178.3 87.35 177.2 88.6 175.95 90.85 173.4 92.5 170.1 93.9 167.35 96.4 160.5 98.6 154.15 100.5 151 104.35 144.3 111 140.05 117.4 136 124.65 135.15 125.4 141.9 124.9 147.9 122.85 147.85 121 148.4 118.2 149.1 115.65 150.9 114.15 152 112.95 153.3 110.85 155.7 109.95 158.8 113.05 158.65 119.3 158.65 119.5 164.25 118.9 170.55 108.9 170.5 103.95 170.5 102.8 180.4 94.6 187.5 86.45 194.55 76.5 194.3 75.85 188.1 76.7 181.6 Z"/>

<path fill="#FF6666" stroke="none" d="
M 80.4 181.25
Q 78.6 181.7 76.7 181.6 75.85 188.1 76.5 194.3 86.45 194.55 94.6 187.5 102.8 180.4 103.95 170.5 108.9 170.5 118.9 170.55 119.5 164.25 119.3 158.65 113.05 158.65 109.95 158.8 110.85 155.7 112.95 153.3 114.15 152 115.65 150.9 118.2 149.1 121 148.4 122.85 147.85 124.9 147.9 125.4 141.9 124.65 135.15 117.4 136 111 140.05 104.35 144.3 100.5 151 98.6 154.15 96.4 160.5 93.9 167.35 92.5 170.1 90.85 173.4 88.6 175.95 87.35 177.2 86 178.3 83.25 180.5 80.4 181.25 Z"/>

<path fill="#999999" stroke="none" d="
M 186.2 361.25
Q 186.2 354.15 183.3 349.2 180.4 344.25 176.3 344.25 172.25 344.25 169.3 349.2 166.4 354.15 166.4 361.25 166.4 368.3 169.3 373.25 172.25 378.25 176.3 378.25 180.4 378.25 183.3 373.25 186.2 368.3 186.2 361.25 Z"/>
</g>

<g id="Layer0_0_STROKES_1_FILL">
<path fill="#FFFFFF" stroke="none" d="
M 100.7 333.6
Q 100.083984375 333.6052734375 99.65 334.05 99.2052734375 334.483984375 99.2 335.1
L 99.2 341.1
Q 99.2052734375 341.716015625 99.65 342.15 100.083984375 342.5947265625 100.7 342.6 101.316015625 342.5947265625 101.75 342.15 102.1947265625 341.716015625 102.2 341.1
L 102.2 335.1
Q 102.1947265625 334.483984375 101.75 334.05 101.316015625 333.6052734375 100.7 333.6
M 99.2 323.1
L 99.2 329.1
Q 99.2052734375 329.716015625 99.65 330.15 100.083984375 330.5947265625 100.7 330.6 101.316015625 330.5947265625 101.75 330.15 102.1947265625 329.716015625 102.2 329.1
L 102.2 323.1
Q 102.1947265625 322.483984375 101.75 322.05 101.316015625 321.6052734375 100.7 321.6 100.083984375 321.6052734375 99.65 322.05 99.2052734375 322.483984375 99.2 323.1
M 101.75 306.15
Q 102.1947265625 305.716015625 102.2 305.1
L 102.2 299.1
Q 102.1947265625 298.483984375 101.75 298.05 101.316015625 297.6052734375 100.7 297.6 100.083984375 297.6052734375 99.65 298.05 99.2052734375 298.483984375 99.2 299.1
L 99.2 305.1
Q 99.2052734375 305.716015625 99.65 306.15 100.083984375 306.5947265625 100.7 306.6 101.316015625 306.5947265625 101.75 306.15
M 102.2 311.1
Q 102.1947265625 310.483984375 101.75 310.05 101.316015625 309.6052734375 100.7 309.6 100.083984375 309.6052734375 99.65 310.05 99.2052734375 310.483984375 99.2 311.1
L 99.2 317.1
Q 99.2052734375 317.716015625 99.65 318.15 100.083984375 318.5947265625 100.7 318.6 101.316015625 318.5947265625 101.75 318.15 102.1947265625 317.716015625 102.2 317.1
L 102.2 311.1
M 99.2 293.1
Q 99.2052734375 293.716015625 99.65 294.15 100.083984375 294.5947265625 100.7 294.6 101.316015625 294.5947265625 101.75 294.15 102.1947265625 293.716015625 102.2 293.1
L 102.2 287.1
Q 102.1947265625 286.483984375 101.75 286.05 101.316015625 285.6052734375 100.7 285.6 100.083984375 285.6052734375 99.65 286.05 99.2052734375 286.483984375 99.2 287.1
L 99.2 293.1
M 99.2 275.1
L 99.2 281.1
Q 99.2052734375 281.716015625 99.65 282.15 100.083984375 282.5947265625 100.7 282.6 101.316015625 282.5947265625 101.75 282.15 102.1947265625 281.716015625 102.2 281.1
L 102.2 275.1
Q 102.1947265625 274.483984375 101.75 274.05 101.316015625 273.6052734375 100.7 273.6 100.083984375 273.6052734375 99.65 274.05 99.2052734375 274.483984375 99.2 275.1
M 101.75 258.15
Q 102.1947265625 257.716015625 102.2 257.1
L 102.2 251.1
Q 102.1947265625 250.483984375 101.75 250.05 101.316015625 249.6052734375 100.7 249.6 100.083984375 249.6052734375 99.65 250.05 99.2052734375 250.483984375 99.2 251.1
L 99.2 257.1
Q 99.2052734375 257.716015625 99.65 258.15 100.083984375 258.5947265625 100.7 258.6 101.316015625 258.5947265625 101.75 258.15
M 102.2 263.1
Q 102.1947265625 262.483984375 101.75 262.05 101.316015625 261.6052734375 100.7 261.6 100.083984375 261.6052734375 99.65 262.05 99.2052734375 262.483984375 99.2 263.1
L 99.2 269.1
Q 99.2052734375 269.716015625 99.65 270.15 100.083984375 270.5947265625 100.7 270.6 101.316015625 270.5947265625 101.75 270.15 102.1947265625 269.716015625 102.2 269.1
L 102.2 263.1
M 99.2 245.1
Q 99.2052734375 245.716015625 99.65 246.15 100.083984375 246.5947265625 100.7 246.6 101.316015625 246.5947265625 101.75 246.15 102.1947265625 245.716015625 102.2 245.1
L 102.2 239.1
Q 102.1947265625 238.483984375 101.75 238.05 101.316015625 237.6052734375 100.7 237.6 100.083984375 237.6052734375 99.65 238.05 99.2052734375 238.483984375 99.2 239.1
L 99.2 245.1
M 99.2 227.1
L 99.2 233.1
Q 99.2052734375 233.716015625 99.65 234.15 100.083984375 234.5947265625 100.7 234.6 101.316015625 234.5947265625 101.75 234.15 102.1947265625 233.716015625 102.2 233.1
L 102.2 227.1
Q 102.1947265625 226.483984375 101.75 226.05 101.316015625 225.6052734375 100.7 225.6 100.083984375 225.6052734375 99.65 226.05 99.2052734375 226.483984375 99.2 227.1 Z"/>
</g>

<path id="Layer0_0_1_STROKES" stroke="#CCCCCC" stroke-width="1" stroke-linejoin="round" stroke-linecap="round" fill="none" d="
M 346.7 301.3
L 346.7 363.05 475.7 389.05 475.7 255.1 346.7 301.3 346.7 229.1 196.3 350.55
M 346.7 301.3
L 196.3 355.15
M 346.7 229.1
L 475.7 255.1
M 167.7 142.6
L 321.7 142.6 321.7 86.1 488.7 86.1 488.7 199.1 321.7 199.1 321.7 142.6
M 196.3 359.8
L 186.15 358.75 196.3 350.55
M 196.3 359.05
L 186.15 358.75 196.3 355.15
M 346.7 363.05
L 196.3 359.05
M 475.7 389.05
L 196.3 359.8"/>

<path id="Layer0_0_2_STROKES" stroke="#FFFFFF" stroke-width="4" stroke-linejoin="round" stroke-linecap="round" fill="none" d="
M 155.95 132.1
L 120.3 132.1 120.3 96.45 56.6 96.45
Q 53 96.45 53 100.05
L 53 213.05
Q 53 216.65 56.6 216.65
L 152.35 216.65
Q 155.95 216.65 155.95 213.05
L 155.95 132.1 120.3 96.45"/>

<path id="Layer0_0_3_STROKES" stroke="#FFFFFF" stroke-width="3" stroke-linejoin="round" stroke-linecap="round" fill="none" d="
M 196.3 355.15
L 196.3 350.55
M 196.3 359.8
L 196.3 377 120.3 404 16.3 404 16.3 359 92.3 332 100.7 332
M 16.3 359
L 120.3 359 196.3 332 100.7 332
M 196.3 350.55
L 196.3 332
M 196.3 359.8
L 196.3 359.05 196.3 355.15
M 186.2 361.25
Q 186.2 368.3 183.3 373.25 180.4 378.25 176.3 378.25 172.25 378.25 169.3 373.25 166.4 368.3 166.4 361.25 166.4 354.15 169.3 349.2 172.25 344.25 176.3 344.25 180.4 344.25 183.3 349.2 186.2 354.15 186.2 361.25 Z
M 120.3 359
L 120.3 404"/>
</defs>

<g transform="matrix( 1, 0, 0, 1, -2.5,0) ">
<use xlink:href="#Layer0_0_FILL"/>

<use xlink:href="#Layer0_0_1_STROKES"/>

<use xlink:href="#Layer0_0_2_STROKES"/>

<use xlink:href="#Layer0_0_3_STROKES"/>

<use xlink:href="#Layer0_0_STROKES_1_FILL"/>
</g>
</svg>
